<svg xmlns="http://www.w3.org/2000/svg" width="29" height="29" viewBox="-3 -3.8 29 29" fill="none">
  <path d="M10.688 19.8701C10.427 19.7771 10.1973 19.6315 9.99896 19.4333L8.26319 17.8555C6.12081 15.9021 4.20802 13.983 2.52481 12.0984C0.841604 10.2138 0 8.19492 0 6.04167C0 4.32684 0.578187 2.89114 1.73456 1.73456C2.89114 0.578187 4.32684 0 6.04167 0C7.01599 0 7.97842 0.224649 8.92898 0.673948C9.87933 1.12325 10.7294 1.85288 11.4792 2.86284C12.2289 1.85288 13.079 1.12325 14.0294 0.673948C14.9799 0.224649 15.9423 0 16.9167 0C18.6315 0 20.0672 0.578187 21.2238 1.73456C22.3801 2.89114 22.9583 4.32684 22.9583 6.04167C22.9583 8.21828 22.1024 10.2597 20.3906 12.1658C18.6788 14.0719 16.7703 15.9747 14.6649 17.874L12.9476 19.4333C12.7494 19.6315 12.5179 19.7771 12.2531 19.8701C11.9881 19.963 11.7263 20.0094 11.4677 20.0094C11.2089 20.0094 10.949 19.963 10.688 19.8701Z" fill="#FF5252"/>
</svg>
