<svg width="28" height="28" viewBox="0 0 28 28" fill="none" xmlns="http://www.w3.org/2000/svg">
<path d="M13.236 22.8598C12.984 22.7699 12.7622 22.6293 12.5707 22.438L10.8948 20.9146C8.82625 19.0285 6.97942 17.1757 5.35425 15.3561C3.72909 13.5364 2.9165 11.5871 2.9165 9.50814C2.9165 7.85244 3.47475 6.46625 4.59125 5.34955C5.70795 4.23305 7.09414 3.6748 8.74984 3.6748C9.69056 3.6748 10.6198 3.89171 11.5376 4.32551C12.4552 4.75932 13.2759 5.46379 13.9998 6.43893C14.7238 5.46379 15.5445 4.75932 16.4621 4.32551C17.3799 3.89171 18.3091 3.6748 19.2498 3.6748C20.9055 3.6748 22.2917 4.23305 23.4084 5.34955C24.5249 6.46625 25.0832 7.85244 25.0832 9.50814C25.0832 11.6097 24.2568 13.5807 22.604 15.4211C20.9512 17.2615 19.1085 19.0986 17.0758 20.9324L15.4176 22.438C15.2263 22.6293 15.0028 22.7699 14.7471 22.8598C14.4912 22.9494 14.2384 22.9942 13.9888 22.9942C13.7389 22.9942 13.488 22.9494 13.236 22.8598Z" fill="#222222"/>
</svg>
